# xmcd CD database file
#
# Track frame offsets:
#	150
#	25492
#	51915
#	80010
#	102310
#	134515
#	162787
#	194975
#	228025
#	270502
#
# Disc length: 3984 seconds
#
# Revision: 0
# Processed by: cddbd v1.5.2PL0 Copyright (c) Steve Scherf et al.
# Submitted via: CDex 1.70beta2
#
DISCID=8a0f8e0a
DTITLE=Kevin Stout and Brian Booth 5 - Good Pals
DYEAR=2002
DGENRE=Jazz
TTITLE0=Oties Rhythm Swing
TTITLE1=Por Seguro
TTITLE2=Good Pals
TTITLE3=Waltz For Natalie
TTITLE4=Ocurriò a Mì
TTITLE5=High Visibility
TTITLE6=Song For Geoffrey
TTITLE7=A Confidential Infatuation
TTITLE8=Red, White and Blues
TTITLE9=My One and Only Love
EXTD=YEAR: 2002
EXTT0=
EXTT1=
EXTT2=
EXTT3=
EXTT4=
EXTT5=
EXTT6=
EXTT7=
EXTT8=
EXTT9=
PLAYORDER=
